<?xml version="1.0" encoding="UTF-8" standalone="no"?>
<svg
   xmlns:dc="http://purl.org/dc/elements/1.1/"
   xmlns:cc="http://creativecommons.org/ns#"
   xmlns:rdf="http://www.w3.org/1999/02/22-rdf-syntax-ns#"
   xmlns:svg="http://www.w3.org/2000/svg"
   xmlns="http://www.w3.org/2000/svg"
   xmlns:xlink="http://www.w3.org/1999/xlink"
   xmlns:sodipodi="http://sodipodi.sourceforge.net/DTD/sodipodi-0.dtd"
   xmlns:inkscape="http://www.inkscape.org/namespaces/inkscape"
   height="660"
   width="600"
   version="1.0"
   id="svg2"
   sodipodi:version="0.32"
   inkscape:version="0.46"
   sodipodi:docname="blason_ville_fr_Solliès-Toucas_(Var).svg"
   sodipodi:docbase="L:\Héraldique"
   inkscape:export-filename="/Users/olivier/Desktop/Blason Rouge/Blason_Vide_3D.png"
   inkscape:export-xdpi="144"
   inkscape:export-ydpi="144"
   inkscape:output_extension="org.inkscape.output.svg.inkscape">
  <metadata
     id="metadata49">
    <rdf:RDF>
      <cc:Work
         rdf:about="">
        <dc:format>image/svg+xml</dc:format>
        <dc:type
           rdf:resource="http://purl.org/dc/dcmitype/StillImage" />
        <dc:title>Gabarit d'un blason en pointe pour le projet Blasons de Wikipédia</dc:title>
        <dc:date>03-AUG-2006</dc:date>
        <dc:creator>
          <cc:Agent>
            <dc:title>Jérôme BLUM (wagner51)</dc:title>
          </cc:Agent>
        </dc:creator>
        <cc:license
           rdf:resource="http://web.resource.org/cc/PublicDomain" />
        <dc:language>fr</dc:language>
        <dc:subject>
          <rdf:Bag>
            <rdf:li>gabarit modèle blason projet wikipédia</rdf:li>
          </rdf:Bag>
        </dc:subject>
        <dc:rights>
          <cc:Agent>
            <dc:title />
          </cc:Agent>
        </dc:rights>
        <dc:publisher>
          <cc:Agent>
            <dc:title />
          </cc:Agent>
        </dc:publisher>
        <dc:identifier />
        <dc:source />
        <dc:relation />
        <dc:coverage />
        <dc:description />
        <dc:contributor>
          <cc:Agent>
            <dc:title />
          </cc:Agent>
        </dc:contributor>
      </cc:Work>
      <cc:License
         rdf:about="http://web.resource.org/cc/PublicDomain">
        <cc:permits
           rdf:resource="http://web.resource.org/cc/Reproduction" />
        <cc:permits
           rdf:resource="http://web.resource.org/cc/Distribution" />
        <cc:permits
           rdf:resource="http://web.resource.org/cc/DerivativeWorks" />
      </cc:License>
    </rdf:RDF>
  </metadata>
  <sodipodi:namedview
     inkscape:window-height="977"
     inkscape:window-width="1280"
     inkscape:pageshadow="2"
     inkscape:pageopacity="0.0"
     guidetolerance="10.0"
     gridtolerance="10.0"
     objecttolerance="10.0"
     borderopacity="1.0"
     bordercolor="#666666"
     pagecolor="#ffffff"
     id="base"
     showgrid="false"
     height="660px"
     inkscape:zoom="1.1621212"
     inkscape:cx="300"
     inkscape:cy="330"
     inkscape:window-x="-4"
     inkscape:window-y="-4"
     inkscape:current-layer="layer3"
     showguides="true"
     inkscape:guide-bbox="true"
     inkscape:snap-global="false"
     inkscape:object-paths="false"
     inkscape:object-nodes="true"
     inkscape:snap-bbox="false"
     inkscape:snap-nodes="true" />
  <desc
     id="desc4">Flag of Canton of Valais (Wallis)</desc>
  <defs
     id="defs6">
    <inkscape:perspective
       sodipodi:type="inkscape:persp3d"
       inkscape:vp_x="-50 : 600 : 1"
       inkscape:vp_y="0 : 1000 : 0"
       inkscape:vp_z="700 : 600 : 1"
       inkscape:persp3d-origin="300 : 400 : 1"
       id="perspective8492" />
    <inkscape:perspective
       sodipodi:type="inkscape:persp3d"
       inkscape:vp_x="-50 : 600 : 1"
       inkscape:vp_y="0 : 1000 : 0"
       inkscape:vp_z="700 : 600 : 1"
       inkscape:persp3d-origin="300 : 400 : 1"
       id="perspective11585" />
    <inkscape:perspective
       sodipodi:type="inkscape:persp3d"
       inkscape:vp_x="-50 : 600 : 1"
       inkscape:vp_y="0 : 1000 : 0"
       inkscape:vp_z="700 : 600 : 1"
       inkscape:persp3d-origin="300 : 400 : 1"
       id="perspective4575" />
    <inkscape:perspective
       sodipodi:type="inkscape:persp3d"
       inkscape:vp_x="-50 : 600 : 1"
       inkscape:vp_y="0 : 1000 : 0"
       inkscape:vp_z="700 : 600 : 1"
       inkscape:persp3d-origin="300 : 400 : 1"
       id="perspective10025" />
    <inkscape:perspective
       sodipodi:type="inkscape:persp3d"
       inkscape:vp_x="-50 : 600 : 1"
       inkscape:vp_y="0 : 1000 : 0"
       inkscape:vp_z="700 : 600 : 1"
       inkscape:persp3d-origin="300 : 400 : 1"
       id="perspective14654" />
    <inkscape:perspective
       sodipodi:type="inkscape:persp3d"
       inkscape:vp_x="-50 : 600 : 1"
       inkscape:vp_y="0 : 1000 : 0"
       inkscape:vp_z="700 : 600 : 1"
       inkscape:persp3d-origin="300 : 400 : 1"
       id="perspective10951" />
    <linearGradient
       id="linearGradient2893">
      <stop
         style="stop-color:white;stop-opacity:0.3137255;"
         offset="0"
         id="stop2895" />
      <stop
         id="stop2897"
         offset="0.19"
         style="stop-color:white;stop-opacity:0.25098041;" />
      <stop
         style="stop-color:#6b6b6b;stop-opacity:0.1254902;"
         offset="0.60000002"
         id="stop2901" />
      <stop
         style="stop-color:black;stop-opacity:0.1254902;"
         offset="1"
         id="stop2899" />
    </linearGradient>
    <linearGradient
       id="linearGradient2885">
      <stop
         id="stop2887"
         offset="0"
         style="stop-color:white;stop-opacity:1;" />
      <stop
         style="stop-color:white;stop-opacity:1;"
         offset="0.22857143"
         id="stop2891" />
      <stop
         id="stop2889"
         offset="1"
         style="stop-color:black;stop-opacity:1;" />
    </linearGradient>
    <linearGradient
       id="linearGradient2955">
      <stop
         id="stop2867"
         offset="0"
         style="stop-color:#fd0000;stop-opacity:1;" />
      <stop
         style="stop-color:#e77275;stop-opacity:0.65882355;"
         offset="0.5"
         id="stop2873" />
      <stop
         style="stop-color:black;stop-opacity:0.32291666;"
         offset="1"
         id="stop2959" />
    </linearGradient>
    <radialGradient
       inkscape:collect="always"
       xlink:href="#linearGradient2955"
       id="radialGradient2961"
       cx="225.52438"
       cy="218.90099"
       fx="225.52438"
       fy="218.90099"
       r="300"
       gradientTransform="matrix(-4.167939e-4,2.182867,-1.884232,-3.599562e-4,615.5972,-289.1214)"
       gradientUnits="userSpaceOnUse" />
    <polygon
       id="star"
       transform="scale(53,53)"
       points="0,-1 0.58778525,0.80901699 -0.95105652,-0.30901699 0.95105652,-0.30901699 -0.58778525,0.80901699 0,-1 " />
    <clipPath
       id="clip">
      <path
         d="M 0,-200 L 0,600 L 300,600 L 300,-200 L 0,-200 z "
         id="path10" />
    </clipPath>
    <radialGradient
       inkscape:collect="always"
       xlink:href="#linearGradient2955"
       id="radialGradient1911"
       gradientUnits="userSpaceOnUse"
       gradientTransform="matrix(-4.167939e-4,2.182867,-1.884232,-3.599562e-4,615.5972,-289.1214)"
       cx="225.52438"
       cy="218.90099"
       fx="225.52438"
       fy="218.90099"
       r="300" />
    <radialGradient
       inkscape:collect="always"
       xlink:href="#linearGradient2955"
       id="radialGradient2865"
       gradientUnits="userSpaceOnUse"
       gradientTransform="matrix(0,1.748721,-1.593162,-1.049767e-7,551.7876,-191.2898)"
       cx="225.52438"
       cy="218.90099"
       fx="225.52438"
       fy="218.90099"
       r="300" />
    <radialGradient
       inkscape:collect="always"
       xlink:href="#linearGradient2955"
       id="radialGradient2871"
       gradientUnits="userSpaceOnUse"
       gradientTransform="matrix(0,1.386237,-1.323286,-5.741131e-8,-158.0823,-109.5408)"
       cx="225.52438"
       cy="218.90099"
       fx="225.52438"
       fy="218.90099"
       r="300" />
    <radialGradient
       inkscape:collect="always"
       xlink:href="#linearGradient2893"
       id="radialGradient3163"
       gradientUnits="userSpaceOnUse"
       gradientTransform="matrix(1.353218,0,0,1.348928,-77.62935,-85.74693)"
       cx="221.44487"
       cy="226.33101"
       fx="221.44487"
       fy="226.33101"
       r="300" />
    <radialGradient
       gradientTransform="matrix(0,1.386237,-1.323286,-5.741131e-8,-158.0823,-109.5408)"
       gradientUnits="userSpaceOnUse"
       xlink:href="#linearGradient2955"
       id="radialGradient6397"
       fy="218.90099"
       fx="225.52438"
       r="300"
       cy="218.90099"
       cx="225.52438" />
    <radialGradient
       gradientTransform="matrix(0,1.748721,-1.593162,-1.049767e-7,551.7876,-191.2898)"
       gradientUnits="userSpaceOnUse"
       xlink:href="#linearGradient2955"
       id="radialGradient6395"
       fy="218.90099"
       fx="225.52438"
       r="300"
       cy="218.90099"
       cx="225.52438" />
    <radialGradient
       gradientTransform="matrix(-4.167939e-4,2.182867,-1.884232,-3.599562e-4,615.5972,-289.1214)"
       gradientUnits="userSpaceOnUse"
       xlink:href="#linearGradient2955"
       id="radialGradient6393"
       fy="218.90099"
       fx="225.52438"
       r="300"
       cy="218.90099"
       cx="225.52438" />
    <clipPath
       id="clipPath6389">
      <path
         id="path6391"
         d="M 0,-200 L 0,600 L 300,600 L 300,-200 L 0,-200 z " />
    </clipPath>
    <polygon
       id="polygon6387"
       transform="scale(53,53)"
       points="0,-1 0.58778525,0.80901699 -0.95105652,-0.30901699 0.95105652,-0.30901699 -0.58778525,0.80901699 0,-1 " />
    <radialGradient
       gradientTransform="matrix(-4.167939e-4,2.182867,-1.884232,-3.599562e-4,615.5972,-289.1214)"
       gradientUnits="userSpaceOnUse"
       xlink:href="#linearGradient2955"
       id="radialGradient6385"
       fy="218.90099"
       fx="225.52438"
       r="300"
       cy="218.90099"
       cx="225.52438" />
    <linearGradient
       id="linearGradient6377">
      <stop
         id="stop6379"
         offset="0"
         style="stop-color:#fd0000;stop-opacity:1" />
      <stop
         id="stop6381"
         offset="0.5"
         style="stop-color:#e77275;stop-opacity:0.65882355" />
      <stop
         id="stop6383"
         offset="1"
         style="stop-color:black;stop-opacity:0.32291666" />
    </linearGradient>
    <linearGradient
       id="linearGradient6369">
      <stop
         id="stop6371"
         offset="0"
         style="stop-color:white;stop-opacity:1" />
      <stop
         id="stop6373"
         offset="0.22857143"
         style="stop-color:white;stop-opacity:1" />
      <stop
         id="stop6375"
         offset="1"
         style="stop-color:black;stop-opacity:1" />
    </linearGradient>
    <linearGradient
       id="linearGradient6359">
      <stop
         id="stop6361"
         offset="0"
         style="stop-color:white;stop-opacity:0.3137255" />
      <stop
         id="stop6363"
         offset="0.19"
         style="stop-color:white;stop-opacity:0.25098041" />
      <stop
         id="stop6365"
         offset="0.60000002"
         style="stop-color:#6b6b6b;stop-opacity:0.1254902" />
      <stop
         id="stop6367"
         offset="1"
         style="stop-color:black;stop-opacity:0.1254902" />
    </linearGradient>
    <linearGradient
       id="linearGradient6465">
      <stop
         style="stop-color:white;stop-opacity:0.3137255"
         offset="0"
         id="stop6467" />
      <stop
         style="stop-color:white;stop-opacity:0.25098041"
         offset="0.19"
         id="stop6469" />
      <stop
         style="stop-color:#6b6b6b;stop-opacity:0.1254902"
         offset="0.60000002"
         id="stop6471" />
      <stop
         style="stop-color:black;stop-opacity:0.1254902"
         offset="1"
         id="stop6473" />
    </linearGradient>
    <linearGradient
       id="linearGradient6457">
      <stop
         style="stop-color:white;stop-opacity:1"
         offset="0"
         id="stop6459" />
      <stop
         style="stop-color:white;stop-opacity:1"
         offset="0.22857143"
         id="stop6461" />
      <stop
         style="stop-color:black;stop-opacity:1"
         offset="1"
         id="stop6463" />
    </linearGradient>
    <linearGradient
       id="linearGradient6449">
      <stop
         style="stop-color:#fd0000;stop-opacity:1"
         offset="0"
         id="stop6451" />
      <stop
         style="stop-color:#e77275;stop-opacity:0.65882355"
         offset="0.5"
         id="stop6453" />
      <stop
         style="stop-color:black;stop-opacity:0.32291666"
         offset="1"
         id="stop6455" />
    </linearGradient>
    <radialGradient
       cx="225.52438"
       cy="218.90099"
       r="300"
       fx="225.52438"
       fy="218.90099"
       id="radialGradient6447"
       xlink:href="#linearGradient2955"
       gradientUnits="userSpaceOnUse"
       gradientTransform="matrix(-4.167939e-4,2.182867,-1.884232,-3.599562e-4,615.5972,-289.1214)" />
    <polygon
       points="0,-1 0.58778525,0.80901699 -0.95105652,-0.30901699 0.95105652,-0.30901699 -0.58778525,0.80901699 0,-1 "
       transform="scale(53,53)"
       id="polygon6445" />
    <clipPath
       id="clipPath6441">
      <path
         d="M 0,-200 L 0,600 L 300,600 L 300,-200 L 0,-200 z "
         id="path6443" />
    </clipPath>
    <radialGradient
       cx="225.52438"
       cy="218.90099"
       r="300"
       fx="225.52438"
       fy="218.90099"
       id="radialGradient6439"
       xlink:href="#linearGradient2955"
       gradientUnits="userSpaceOnUse"
       gradientTransform="matrix(-4.167939e-4,2.182867,-1.884232,-3.599562e-4,615.5972,-289.1214)" />
    <radialGradient
       cx="225.52438"
       cy="218.90099"
       r="300"
       fx="225.52438"
       fy="218.90099"
       id="radialGradient6437"
       xlink:href="#linearGradient2955"
       gradientUnits="userSpaceOnUse"
       gradientTransform="matrix(0,1.748721,-1.593162,-1.049767e-7,551.7876,-191.2898)" />
    <radialGradient
       cx="225.52438"
       cy="218.90099"
       r="300"
       fx="225.52438"
       fy="218.90099"
       id="radialGradient6435"
       xlink:href="#linearGradient2955"
       gradientUnits="userSpaceOnUse"
       gradientTransform="matrix(0,1.386237,-1.323286,-5.741131e-8,-158.0823,-109.5408)" />
    <inkscape:perspective
       id="perspective11825"
       inkscape:persp3d-origin="300 : 400 : 1"
       inkscape:vp_z="700 : 600 : 1"
       inkscape:vp_y="0 : 1000 : 0"
       inkscape:vp_x="-50 : 600 : 1"
       sodipodi:type="inkscape:persp3d" />
    <radialGradient
       gradientTransform="matrix(1.353218,0,0,1.348928,-77.62935,-85.74693)"
       gradientUnits="userSpaceOnUse"
       xlink:href="#linearGradient2893"
       id="radialGradient8681"
       fy="226.33101"
       fx="221.44487"
       r="300"
       cy="226.33101"
       cx="221.44487" />
    <radialGradient
       gradientTransform="matrix(0,1.386237,-1.323286,-5.741131e-8,-158.0823,-109.5408)"
       gradientUnits="userSpaceOnUse"
       xlink:href="#linearGradient2955"
       id="radialGradient8679"
       fy="218.90099"
       fx="225.52438"
       r="300"
       cy="218.90099"
       cx="225.52438" />
    <radialGradient
       gradientTransform="matrix(0,1.748721,-1.593162,-1.049767e-7,551.7876,-191.2898)"
       gradientUnits="userSpaceOnUse"
       xlink:href="#linearGradient2955"
       id="radialGradient8677"
       fy="218.90099"
       fx="225.52438"
       r="300"
       cy="218.90099"
       cx="225.52438" />
    <radialGradient
       gradientTransform="matrix(-4.167939e-4,2.182867,-1.884232,-3.599562e-4,615.5972,-289.1214)"
       gradientUnits="userSpaceOnUse"
       xlink:href="#linearGradient2955"
       id="radialGradient8675"
       fy="218.90099"
       fx="225.52438"
       r="300"
       cy="218.90099"
       cx="225.52438" />
    <clipPath
       id="clipPath8671">
      <path
         id="path8673"
         d="M 0,-200 L 0,600 L 300,600 L 300,-200 L 0,-200 z " />
    </clipPath>
    <polygon
       id="polygon8669"
       transform="scale(53,53)"
       points="0,-1 0.58778525,0.80901699 -0.95105652,-0.30901699 0.95105652,-0.30901699 -0.58778525,0.80901699 0,-1 " />
    <radialGradient
       gradientTransform="matrix(-4.167939e-4,2.182867,-1.884232,-3.599562e-4,615.5972,-289.1214)"
       gradientUnits="userSpaceOnUse"
       xlink:href="#linearGradient2955"
       id="radialGradient8667"
       fy="218.90099"
       fx="225.52438"
       r="300"
       cy="218.90099"
       cx="225.52438" />
    <linearGradient
       id="linearGradient8659">
      <stop
         id="stop8661"
         offset="0"
         style="stop-color:#fd0000;stop-opacity:1" />
      <stop
         id="stop8663"
         offset="0.5"
         style="stop-color:#e77275;stop-opacity:0.65882355" />
      <stop
         id="stop8665"
         offset="1"
         style="stop-color:black;stop-opacity:0.32291666" />
    </linearGradient>
    <linearGradient
       id="linearGradient8651">
      <stop
         id="stop8653"
         offset="0"
         style="stop-color:white;stop-opacity:1" />
      <stop
         id="stop8655"
         offset="0.22857143"
         style="stop-color:white;stop-opacity:1" />
      <stop
         id="stop8657"
         offset="1"
         style="stop-color:black;stop-opacity:1" />
    </linearGradient>
    <linearGradient
       id="linearGradient8641">
      <stop
         id="stop8643"
         offset="0"
         style="stop-color:white;stop-opacity:0.3137255" />
      <stop
         id="stop8645"
         offset="0.19"
         style="stop-color:white;stop-opacity:0.25098041" />
      <stop
         id="stop8647"
         offset="0.60000002"
         style="stop-color:#6b6b6b;stop-opacity:0.1254902" />
      <stop
         id="stop8649"
         offset="1"
         style="stop-color:black;stop-opacity:0.1254902" />
    </linearGradient>
    <inkscape:perspective
       id="perspective8638"
       inkscape:persp3d-origin="300 : 400 : 1"
       inkscape:vp_z="700 : 600 : 1"
       inkscape:vp_y="0 : 1000 : 0"
       inkscape:vp_x="-50 : 600 : 1"
       sodipodi:type="inkscape:persp3d" />
    <inkscape:perspective
       id="perspective9287"
       inkscape:persp3d-origin="300 : 400 : 1"
       inkscape:vp_z="700 : 600 : 1"
       inkscape:vp_y="0 : 1000 : 0"
       inkscape:vp_x="-50 : 600 : 1"
       sodipodi:type="inkscape:persp3d" />
    <inkscape:perspective
       id="perspective3336"
       inkscape:persp3d-origin="92.5 : 61.666667 : 1"
       inkscape:vp_z="185 : 92.5 : 1"
       inkscape:vp_y="0 : 1000 : 0"
       inkscape:vp_x="0 : 92.5 : 1"
       sodipodi:type="inkscape:persp3d" />
    <inkscape:perspective
       id="perspective3464"
       inkscape:persp3d-origin="372.04724 : 350.78739 : 1"
       inkscape:vp_z="744.09448 : 526.18109 : 1"
       inkscape:vp_y="0 : 1000 : 0"
       inkscape:vp_x="0 : 526.18109 : 1"
       sodipodi:type="inkscape:persp3d" />
  </defs>
  <g
     inkscape:groupmode="layer"
     id="layer3"
     inkscape:label="Fond écu"
     style="display:inline">
    <path
       d="M 300,658.5 C 300,658.5 598.5,546.17969 598.5,260.72817 C 598.5,-24.723354 598.5,2.1764768 598.5,2.1764768 L 1.5,2.1764768 L 1.5,260.72817 C 1.5,546.17969 300,658.5 300,658.5 z"
       style="fill:#e20909;fill-opacity:1;fill-rule:evenodd;stroke:none;stroke-width:1px;stroke-linecap:butt;stroke-linejoin:miter;stroke-opacity:1;display:inline"
       id="path11587" />
    <rect
       y="2.2"
       x="1.5"
       height="195"
       width="597"
       id="rect4282"
       style="opacity:1;fill:#2b5df2;fill-opacity:1;fill-rule:nonzero;stroke:#000000;stroke-width:3;stroke-linecap:round;stroke-linejoin:bevel;stroke-miterlimit:4;stroke-dasharray:none;stroke-dashoffset:0;stroke-opacity:1.0" />
  </g>
  <g
     inkscape:groupmode="layer"
     id="layer4"
     inkscape:label="Meubles"
     style="display:inline">
    <g
       id="g5377">
      <path
         id="rect3460"
         d="M 250.375,2.1875 C 251.46192,4.4234128 252.69799,6.6154534 254.0625,8.78125 C 259.17718,16.899465 262.53488,25.548434 262.375,34.84375 C 260.04841,36.155699 257.8291,37.571967 255.6875,39.09375 L 202.25,3.59375 L 238.125,56.46875 C 237.48024,57.358975 236.85481,58.271991 236.25,59.1875 C 226.07139,54.602246 216.51122,53.707478 207.40625,55.46875 C 194.53508,57.958546 183.59823,55.238304 172.1875,48.4375 C 179.31078,60.45499 189.93066,65.659711 202.03125,68.40625 C 211.40704,70.534327 219.90754,74.257284 226.375,80.96875 C 225.67129,83.497719 225.06692,86.059636 224.625,88.65625 L 161.71875,101.40625 L 224.5,113.40625 C 224.67255,114.48631 224.87321,115.57802 225.09375,116.65625 C 214.65121,120.6072 207.2252,126.68962 202.03125,134.375 C 194.69049,145.23682 185.12749,151.0528 172.25,154.3125 C 185.78456,157.77326 196.90775,153.92684 207.40625,147.3125 C 215.52448,142.19782 224.17346,138.84012 233.46875,139 C 234.7807,141.32659 236.19697,143.54591 237.71875,145.6875 L 203.53125,197.1875 L 205.15625,197.1875 L 255.125,163.25 C 256.00836,163.88933 256.87303,164.52499 257.78125,165.125 C 253.19602,175.30361 252.33248,184.89501 254.09375,194 C 254.30123,195.0726 254.4579,196.14106 254.59375,197.1875 L 267.53125,197.1875 C 269.73123,188.66712 273.36744,180.96983 279.5625,175 C 282.09657,175.70575 284.64799,176.30715 287.25,176.75 L 291.40625,197.1875 L 308.125,197.1875 L 312.03125,176.875 C 313.1113,176.70249 314.17176,176.5018 315.25,176.28125 C 318.68287,185.36237 323.7503,192.15486 330.0625,197.1875 L 347.8125,197.1875 C 347.20499,196.11183 346.57475,195.02982 345.90625,193.96875 C 340.78161,185.83466 337.47892,177.23065 337.65625,167.90625 C 339.96762,166.60096 342.15267,165.16878 344.28125,163.65625 L 394.8125,197.1875 L 396.4375,197.1875 L 361.875,146.25 C 362.50586,145.37736 363.15749,144.49061 363.75,143.59375 C 373.93149,148.19224 383.51537,149.04341 392.625,147.28125 C 405.49614,144.79134 416.37057,147.51174 427.78125,154.3125 C 420.65797,142.29498 410.06936,137.15278 397.96875,134.40625 C 388.60351,132.28059 380.11747,128.48695 373.65625,121.78125 C 374.35826,119.25662 374.90262,116.71702 375.34375,114.125 L 438.28125,101.40625 L 375.5,89.34375 C 375.32746,88.263699 375.09554,87.203259 374.875,86.125 C 385.32713,82.177708 392.74281,76.061396 397.9375,68.375 C 405.27824,57.513162 414.87255,51.759683 427.75,48.5 C 414.21545,45.039245 403.09223,48.854424 392.59375,55.46875 C 384.45974,60.593386 375.82441,63.896092 366.5,63.71875 C 365.19466,61.40738 363.79378,59.222319 362.28125,57.09375 L 397.78125,3.625 L 344.84375,39.5 C 343.9711,38.869128 343.08436,38.21751 342.1875,37.625 C 346.77981,27.449343 347.66754,17.91746 345.90625,8.8125 C 345.46885,6.5513844 345.21694,4.341807 345.09375,2.1875 L 333.3125,2.1875 C 333.214,2.5931776 333.12412,2.9970839 333.03125,3.40625 C 330.90081,12.792564 327.10905,21.314525 320.375,27.78125 C 317.85811,27.08225 315.30255,26.471001 312.71875,26.03125 L 307.90625,2.1875 L 292.5,2.1875 L 287.96875,25.875 C 286.88873,26.047534 285.797,26.279443 284.71875,26.5 C 280.7685,16.054687 274.68654,8.6322741 267,3.4375 C 266.39578,3.0291474 265.79195,2.6100109 265.21875,2.1875 L 250.375,2.1875 z"
         style="opacity:1;fill:#fcef3c;fill-opacity:1;fill-rule:nonzero;stroke:#000000;stroke-width:3;stroke-linecap:round;stroke-linejoin:bevel;stroke-miterlimit:4;stroke-dasharray:none;stroke-dashoffset:0;stroke-opacity:1;display:inline" />
      <path
         sodipodi:nodetypes="ccc"
         id="path6604"
         d="M 286.67326,139.1269 C 295.038,145.58515 301.56631,146.07151 309.88111,138.45565 C 301.28152,131.07839 295.63922,131.07483 286.67326,139.1269 z"
         style="fill:#000000;fill-opacity:1;fill-rule:evenodd;stroke:#000000;stroke-width:1.5624994px;stroke-linecap:butt;stroke-linejoin:miter;stroke-opacity:1;display:inline" />
      <path
         sodipodi:nodetypes="cccccc"
         id="path6606"
         d="M 266.74126,103.33121 C 268.53524,97.916033 262.18483,96.189746 260.12618,100.35442 L 256.48789,98.700654 C 263.93799,90.284354 271.97225,89.83214 280.30217,93.739344 C 283.08669,94.382928 282.96813,98.162674 276.33313,99.03141 C 272.0169,97.635668 276.89869,107.14666 266.74126,103.33121 z"
         style="fill:#000000;fill-opacity:1;fill-rule:evenodd;stroke:#000000;stroke-width:1.5624994px;stroke-linecap:butt;stroke-linejoin:miter;stroke-opacity:1;display:inline" />
      <path
         sodipodi:nodetypes="ccc"
         id="path6608"
         d="M 262.77221,84.80898 C 269.11643,84.649272 274.6462,81.36935 282.9482,87.45502 C 284.42402,83.953988 272.80976,77.723863 262.77221,84.80898 z"
         style="fill:#000000;fill-opacity:1;fill-rule:evenodd;stroke:#000000;stroke-width:1.5624994px;stroke-linecap:butt;stroke-linejoin:miter;stroke-opacity:1;display:inline" />
      <path
         sodipodi:nodetypes="ccc"
         id="path6610"
         d="M 311.44922,88.304354 C 317.41671,86.144807 321.62403,81.283242 331.42541,84.428304 C 331.71722,80.640142 318.72814,78.406452 311.44922,88.304354 z"
         style="fill:#000000;fill-opacity:1;fill-rule:evenodd;stroke:#000000;stroke-width:1.5624994px;stroke-linecap:butt;stroke-linejoin:miter;stroke-opacity:1;display:inline" />
      <path
         sodipodi:nodetypes="cccccc"
         id="path6612"
         d="M 320.98491,99.03141 C 319.11063,96.929846 317.23636,97.964385 315.36209,98.369898 C 313.00156,92.157041 319.00554,93.113759 322.30792,91.754817 C 331.01778,90.69068 332.7818,94.727994 338.51487,97.37764 L 331.23827,98.369898 C 330.03625,106.89951 321.35672,103.51277 320.98491,99.03141 z"
         style="fill:#000000;fill-opacity:1;fill-rule:evenodd;stroke:#000000;stroke-width:1.5624994px;stroke-linecap:butt;stroke-linejoin:miter;stroke-opacity:1;display:inline" />
      <path
         id="path6614"
         d="M 304.11646,121.52267 C 308.20565,121.00427 310.29226,126.00881 305.77022,127.47624 C 299.14833,127.30981 300.31786,123.89139 304.11646,121.52267 z"
         style="fill:#000000;fill-opacity:1;fill-rule:evenodd;stroke:#000000;stroke-width:1.5624994px;stroke-linecap:butt;stroke-linejoin:miter;stroke-opacity:1;display:inline" />
      <path
         sodipodi:nodetypes="ccc"
         id="path6616"
         d="M 292.97231,121.87218 C 297.0615,121.35378 299.1481,126.35832 294.62606,127.82575 C 288.00417,127.65932 289.1737,124.24091 292.97231,121.87218 z"
         style="fill:#000000;fill-opacity:1;fill-rule:evenodd;stroke:#000000;stroke-width:1.5624994px;stroke-linecap:butt;stroke-linejoin:miter;stroke-opacity:1;display:inline" />
    </g>
    <use
       style="display:inline"
       x="0"
       y="0"
       inkscape:tiled-clone-of="#path4594"
       xlink:href="#path4594"
       transform="translate(-1.9999991,66.038386)"
       id="use4598"
       width="600"
       height="660" />
    <g
       style="display:inline"
       id="g4572"
       transform="matrix(-0.7071068,-0.7071068,0.7071068,-0.7071068,728.5978,1589.4156)"
       inkscape:tile-cx="919.59555"
       inkscape:tile-cy="474.38527"
       inkscape:tile-w="49.561351"
       inkscape:tile-h="49.561351"
       inkscape:tile-x0="894.81488"
       inkscape:tile-y0="449.60459">
      <path
         sodipodi:nodetypes="ccccc"
         id="path4564"
         d="M 1081.9503,469.5 L 1150.2744,469.5 C 1150.2696,473.83726 1140.9486,480.42058 1120.934,480.42313 C 1112.1854,480.30002 1098.0755,477.14192 1088.1921,469.5 L 1081.9503,469.5 z"
         style="opacity:1;fill:#fcef3c;fill-opacity:1;stroke:#000000;stroke-width:2;stroke-miterlimit:4;stroke-dasharray:none;stroke-opacity:1" />
      <path
         style="opacity:1;fill:#fcef3c;fill-opacity:1;stroke:#000000;stroke-width:2;stroke-miterlimit:4;stroke-dasharray:none;stroke-opacity:1"
         d="M 1081.9503,469.5 L 1150.2744,469.5 C 1150.2696,465.16274 1140.9486,458.57942 1120.934,458.57687 C 1112.1854,458.69998 1098.0755,461.85808 1088.1921,469.5 L 1081.9503,469.5 z"
         id="path4570"
         sodipodi:nodetypes="ccccc" />
    </g>
    <path
       sodipodi:type="arc"
       style="opacity:1;fill:#fcef3c;fill-opacity:1;stroke:#000000;stroke-width:2;stroke-miterlimit:4;stroke-dasharray:none;stroke-opacity:1;display:inline"
       id="path4594"
       sodipodi:cx="934.02142"
       sodipodi:cy="505.10492"
       sodipodi:rx="9.5040073"
       sodipodi:ry="8.8973684"
       d="M 943.52543,505.10492 A 9.5040073,8.8973684 0 1 1 924.51742,505.10492 A 9.5040073,8.8973684 0 1 1 943.52543,505.10492 z"
       transform="matrix(0.9489884,0,0,1.0136922,-601.36628,-120.57844)"
       inkscape:tile-cx="927.85542"
       inkscape:tile-cy="398.23388"
       inkscape:tile-w="18.038385"
       inkscape:tile-h="18.038386"
       inkscape:tile-x0="918.83622"
       inkscape:tile-y0="389.21468" />
    <use
       style="display:inline"
       x="0"
       y="0"
       inkscape:tiled-clone-of="#g4572"
       xlink:href="#g4572"
       transform="translate(-4.0000009,-70.438649)"
       id="use4578"
       width="600"
       height="660" />
    <use
       style="display:inline"
       x="0"
       y="0"
       inkscape:tiled-clone-of="#path4594"
       xlink:href="#path4594"
       transform="translate(32.038389,66.038386)"
       id="use4604"
       width="600"
       height="660" />
    <use
       style="display:inline"
       x="0"
       y="0"
       inkscape:tiled-clone-of="#g4572"
       xlink:href="#g4572"
       transform="matrix(-1,0,0,1,599.0601,2.71425e-8)"
       id="use4580"
       width="600"
       height="660" />
    <use
       style="display:inline"
       x="0"
       y="0"
       inkscape:tiled-clone-of="#path4594"
       xlink:href="#path4594"
       transform="translate(30.038389,2.7142516e-8)"
       id="use4602"
       width="600"
       height="660" />
    <use
       style="display:inline"
       x="0"
       y="0"
       inkscape:tiled-clone-of="#g4572"
       xlink:href="#g4572"
       transform="matrix(-1,0,0,1,603.0601,-70.438649)"
       id="use4582"
       width="600"
       height="660" />
    <g
       style="display:inline"
       inkscape:tile-y0="330.33562"
       inkscape:tile-x0="908.04583"
       inkscape:tile-h="45.325143"
       inkscape:tile-w="33.029444"
       inkscape:tile-cy="352.99819"
       inkscape:tile-cx="924.56056"
       transform="matrix(-0.4588612,-0.6553216,0.6553216,-0.4588612,485.0206,1293.3301)"
       id="g4584">
      <path
         style="opacity:1;fill:#fcef3c;fill-opacity:1;stroke:#000000;stroke-width:2;stroke-miterlimit:4;stroke-dasharray:none;stroke-opacity:1"
         d="M 1081.9503,469.5 L 1150.2744,469.5 C 1150.2696,473.83726 1140.9486,480.42058 1120.934,480.42313 C 1112.1854,480.30002 1098.0755,477.14192 1088.1921,469.5 L 1081.9503,469.5 z"
         id="path4586"
         sodipodi:nodetypes="ccccc" />
      <path
         sodipodi:nodetypes="ccccc"
         id="path4588"
         d="M 1081.9503,469.5 L 1150.2744,469.5 C 1150.2696,465.16274 1140.9486,458.57942 1120.934,458.57687 C 1112.1854,458.69998 1098.0755,461.85808 1088.1921,469.5 L 1081.9503,469.5 z"
         style="opacity:1;fill:#fcef3c;fill-opacity:1;stroke:#000000;stroke-width:2;stroke-miterlimit:4;stroke-dasharray:none;stroke-opacity:1" />
    </g>
    <use
       style="display:inline"
       x="0"
       y="0"
       inkscape:tiled-clone-of="#g4584"
       xlink:href="#g4584"
       transform="matrix(-1,0,0,1,600.8068,1.6514055)"
       id="use4592"
       width="600"
       height="660" />
    <use
       style="display:inline"
       x="0"
       y="0"
       inkscape:tiled-clone-of="#path4594"
       xlink:href="#path4594"
       transform="translate(-0.3879109,106.92813)"
       id="use4600"
       width="600"
       height="660" />
    <use
       style="display:inline"
       x="0"
       y="0"
       inkscape:tiled-clone-of="#path4594"
       xlink:href="#path4594"
       transform="translate(31.547599,105.71907)"
       id="use4606"
       width="600"
       height="660" />
    <path
       inkscape:tile-y0="294.26769"
       inkscape:tile-x0="921.76031"
       inkscape:tile-h="16.234548"
       inkscape:tile-w="16.234548"
       inkscape:tile-cy="302.38497"
       inkscape:tile-cx="929.87758"
       transform="matrix(0.8540896,0,0,0.912323,-508.7066,-165.22527)"
       d="M 943.52543,505.10492 A 9.5040073,8.8973684 0 1 1 924.51742,505.10492 A 9.5040073,8.8973684 0 1 1 943.52543,505.10492 z"
       sodipodi:ry="8.8973684"
       sodipodi:rx="9.5040073"
       sodipodi:cy="505.10492"
       sodipodi:cx="934.02142"
       id="path4608"
       style="opacity:1;fill:#fcef3c;fill-opacity:1;stroke:#000000;stroke-width:2;stroke-miterlimit:4;stroke-dasharray:none;stroke-opacity:1;display:inline"
       sodipodi:type="arc" />
    <use
       style="display:inline"
       x="0"
       y="0"
       inkscape:tiled-clone-of="#path4608"
       xlink:href="#path4608"
       transform="translate(22.234549,2.7142546e-8)"
       id="use4612"
       width="600"
       height="660" />
    <g
       style="display:inline"
       id="g4614"
       transform="matrix(-0.6181925,-0.1656441,0.1656441,-0.6181925,888.6139,747.28523)"
       inkscape:tile-cx="923.22242"
       inkscape:tile-cy="277.88356"
       inkscape:tile-w="42.30805"
       inkscape:tile-h="16.1106"
       inkscape:tile-x0="902.06839"
       inkscape:tile-y0="269.82826">
      <path
         sodipodi:nodetypes="ccccc"
         id="path4616"
         d="M 1081.9503,469.5 L 1150.2744,469.5 C 1150.2696,473.83726 1140.9486,480.42058 1120.934,480.42313 C 1112.1854,480.30002 1098.0755,477.14192 1088.1921,469.5 L 1081.9503,469.5 z"
         style="opacity:1;fill:#fcef3c;fill-opacity:1;stroke:#000000;stroke-width:2;stroke-miterlimit:4;stroke-dasharray:none;stroke-opacity:1" />
      <path
         style="opacity:1;fill:#fcef3c;fill-opacity:1;stroke:#000000;stroke-width:2;stroke-miterlimit:4;stroke-dasharray:none;stroke-opacity:1"
         d="M 1081.9503,469.5 L 1150.2744,469.5 C 1150.2696,465.16274 1140.9486,458.57942 1120.934,458.57687 C 1112.1854,458.69998 1098.0755,461.85808 1088.1921,469.5 L 1081.9503,469.5 z"
         id="path4618"
         sodipodi:nodetypes="ccccc" />
    </g>
    <use
       style="display:inline"
       x="0"
       y="0"
       inkscape:tiled-clone-of="#g4614"
       xlink:href="#g4614"
       transform="matrix(-1,0,0,1,599.0605,2.7142537e-8)"
       id="use4622"
       width="600"
       height="660" />
    <g
       style="display:inline"
       inkscape:tile-y0="235.49931"
       inkscape:tile-x0="929.37348"
       inkscape:tile-h="25.497107"
       inkscape:tile-w="13.218234"
       inkscape:tile-cy="248.24787"
       inkscape:tile-cx="935.98259"
       transform="matrix(-0.1731044,-0.3712237,0.3712237,-0.1731044,311.54199,753.97946)"
       id="g4626">
      <path
         style="opacity:1;fill:#fcef3c;fill-opacity:1;stroke:#000000;stroke-width:2;stroke-miterlimit:4;stroke-dasharray:none;stroke-opacity:1"
         d="M 1081.9503,469.5 L 1150.2744,469.5 C 1150.2696,473.83726 1140.9486,480.42058 1120.934,480.42313 C 1112.1854,480.30002 1098.0755,477.14192 1088.1921,469.5 L 1081.9503,469.5 z"
         id="path4628"
         sodipodi:nodetypes="ccccc" />
      <path
         sodipodi:nodetypes="ccccc"
         id="path4630"
         d="M 1081.9503,469.5 L 1150.2744,469.5 C 1150.2696,465.16274 1140.9486,458.57942 1120.934,458.57687 C 1112.1854,458.69998 1098.0755,461.85808 1088.1921,469.5 L 1081.9503,469.5 z"
         style="opacity:1;fill:#fcef3c;fill-opacity:1;stroke:#000000;stroke-width:2;stroke-miterlimit:4;stroke-dasharray:none;stroke-opacity:1" />
    </g>
    <use
       style="display:inline"
       x="0"
       y="0"
       inkscape:tiled-clone-of="#g4626"
       xlink:href="#g4626"
       transform="matrix(-1,0,0,1,600.23278,0.869729)"
       id="use4634"
       width="600"
       height="660" />
    <g
       style="display:inline"
       id="g3433"
       inkscape:tile-cx="1010.6062"
       inkscape:tile-cy="453.07217"
       inkscape:tile-w="296.48004"
       inkscape:tile-h="217.77155"
       inkscape:tile-x0="862.46616"
       inkscape:tile-y0="343.89119"
       transform="translate(-644.8462,-6.791394)">
      <path
         sodipodi:nodetypes="cccsccccc"
         id="path2525"
         d="M 862.46616,551.18418 C 869.45187,554.15143 876.43758,552.95915 883.42329,561.66274 C 917.52754,541.07881 951.51377,531.12032 986.59681,519.34547 C 984.47927,522.83533 1049.8055,493.61621 1069.2163,475.41612 C 1097.7991,448.61618 1111.545,394.15084 1113.9516,388.36346 C 1120.8068,368.42754 1112.6414,365.94592 1109.5184,387.1544 C 1097.4809,411.39037 1097.4277,436.43778 1064.783,470.17684 C 1049.4443,482.87752 1012.6228,504.56404 979.74544,510.88202 C 940.60383,524.04922 899.67199,527.37016 862.46616,551.18418 z"
         style="fill:#fcef3c;fill-opacity:1;stroke:#000000;stroke-width:2;stroke-miterlimit:4;stroke-dasharray:none;stroke-opacity:1" />
      <use
         inkscape:tile-y0="455.35913"
         inkscape:tile-x0="989.94644"
         inkscape:tile-h="53.278879"
         inkscape:tile-w="45.547191"
         inkscape:tile-cy="481.99857"
         inkscape:tile-cx="1012.72"
         x="0"
         y="0"
         inkscape:tiled-clone-of="#g4572"
         xlink:href="#g4572"
         transform="matrix(8.7155761e-2,0.9961947,-0.9961947,8.7155761e-2,1454.6906,171.31927)"
         id="use3297"
         width="600"
         height="660" />
      <path
         sodipodi:type="arc"
         style="fill:#fcef3c;fill-opacity:1;stroke:#000000;stroke-width:2;stroke-miterlimit:4;stroke-dasharray:none;stroke-opacity:1"
         id="path3299"
         sodipodi:cx="934.02142"
         sodipodi:cy="505.10492"
         sodipodi:rx="9.5040073"
         sodipodi:ry="8.8973684"
         d="M 943.52543,505.10492 A 9.5040073,8.8973684 0 1 1 924.51742,505.10492 A 9.5040073,8.8973684 0 1 1 943.52543,505.10492 z"
         transform="matrix(0.9489884,0,0,1.0136922,160.7592,-42.0492)"
         inkscape:tile-cx="1047.1347"
         inkscape:tile-cy="469.97172"
         inkscape:tile-w="18.038385"
         inkscape:tile-h="18.038386"
         inkscape:tile-x0="1038.1155"
         inkscape:tile-y0="460.95252" />
      <g
         inkscape:tile-y0="379.06094"
         inkscape:tile-x0="1054.6655"
         inkscape:tile-h="29.471002"
         inkscape:tile-w="47.725522"
         inkscape:tile-cy="393.79644"
         inkscape:tile-cx="1078.5283"
         transform="matrix(-0.6928203,-0.4000001,0.4000001,-0.6928203,1664.1881,1166.5913)"
         id="g3301">
        <path
           style="opacity:1;fill:#fcef3c;fill-opacity:1;stroke:#000000;stroke-width:2;stroke-miterlimit:4;stroke-dasharray:none;stroke-opacity:1"
           d="M 1081.9503,469.5 L 1150.2744,469.5 C 1150.2696,473.83726 1140.9486,480.42058 1120.934,480.42313 C 1112.1854,480.30002 1098.0755,477.14192 1088.1921,469.5 L 1081.9503,469.5 z"
           id="path3303"
           sodipodi:nodetypes="ccccc" />
        <path
           sodipodi:nodetypes="ccccc"
           id="path3305"
           d="M 1081.9503,469.5 L 1150.2744,469.5 C 1150.2696,465.16274 1140.9486,458.57942 1120.934,458.57687 C 1112.1854,458.69998 1098.0755,461.85808 1088.1921,469.5 L 1081.9503,469.5 z"
           style="opacity:1;fill:#fcef3c;fill-opacity:1;stroke:#000000;stroke-width:2;stroke-miterlimit:4;stroke-dasharray:none;stroke-opacity:1" />
      </g>
      <g
         inkscape:tile-y0="343.89119"
         inkscape:tile-x0="1107.5873"
         inkscape:tile-h="27.883757"
         inkscape:tile-w="9.0926038"
         inkscape:tile-cy="357.83307"
         inkscape:tile-cx="1112.1336"
         transform="matrix(-3.5698919e-2,-0.4080413,0.4080413,-3.5698919e-2,960.61601,830.016)"
         id="g3307">
        <path
           style="opacity:1;fill:#fcef3c;fill-opacity:1;stroke:#000000;stroke-width:2;stroke-miterlimit:4;stroke-dasharray:none;stroke-opacity:1"
           d="M 1081.9503,469.5 L 1150.2744,469.5 C 1150.2696,473.83726 1140.9486,480.42058 1120.934,480.42313 C 1112.1854,480.30002 1098.0755,477.14192 1088.1921,469.5 L 1081.9503,469.5 z"
           id="path3309"
           sodipodi:nodetypes="ccccc" />
        <path
           sodipodi:nodetypes="ccccc"
           id="path3311"
           d="M 1081.9503,469.5 L 1150.2744,469.5 C 1150.2696,465.16274 1140.9486,458.57942 1120.934,458.57687 C 1112.1854,458.69998 1098.0755,461.85808 1088.1921,469.5 L 1081.9503,469.5 z"
           style="opacity:1;fill:#fcef3c;fill-opacity:1;stroke:#000000;stroke-width:2;stroke-miterlimit:4;stroke-dasharray:none;stroke-opacity:1" />
      </g>
      <g
         id="g3313"
         transform="matrix(-0.3200001,-0.5542563,0.5542563,-0.3200001,1196.1528,1137.0687)"
         inkscape:tile-cx="1098.3635"
         inkscape:tile-cy="368.06067"
         inkscape:tile-w="23.576803"
         inkscape:tile-h="38.180422"
         inkscape:tile-x0="1086.5751"
         inkscape:tile-y0="348.97046">
        <path
           sodipodi:nodetypes="ccccc"
           id="path3315"
           d="M 1081.9503,469.5 L 1150.2744,469.5 C 1150.2696,473.83726 1140.9486,480.42058 1120.934,480.42313 C 1112.1854,480.30002 1098.0755,477.14192 1088.1921,469.5 L 1081.9503,469.5 z"
           style="opacity:1;fill:#fcef3c;fill-opacity:1;stroke:#000000;stroke-width:2;stroke-miterlimit:4;stroke-dasharray:none;stroke-opacity:1" />
        <path
           style="opacity:1;fill:#fcef3c;fill-opacity:1;stroke:#000000;stroke-width:2;stroke-miterlimit:4;stroke-dasharray:none;stroke-opacity:1"
           d="M 1081.9503,469.5 L 1150.2744,469.5 C 1150.2696,465.16274 1140.9486,458.57942 1120.934,458.57687 C 1112.1854,458.69998 1098.0755,461.85808 1088.1921,469.5 L 1081.9503,469.5 z"
           id="path3317"
           sodipodi:nodetypes="ccccc" />
      </g>
      <use
         height="660"
         width="600"
         id="use3323"
         transform="matrix(-0.9063079,-0.4226183,-0.4226183,0.9063079,2282.383,504.98067)"
         xlink:href="#g3307"
         inkscape:tiled-clone-of="#g3307"
         y="0"
         x="0" />
      <use
         height="660"
         width="600"
         id="use3329"
         transform="matrix(-0.9659259,-0.2588191,-0.2588191,0.9659259,2285.3535,302.10387)"
         xlink:href="#g3313"
         inkscape:tiled-clone-of="#g3313"
         y="0"
         x="0" />
      <use
         height="660"
         width="600"
         id="use3333"
         transform="matrix(-0.9848078,-0.1736482,-0.1736482,0.9848078,2264.0057,199.32493)"
         xlink:href="#g3301"
         inkscape:tiled-clone-of="#g3301"
         y="0"
         x="0" />
      <use
         inkscape:tile-y0="506.39659"
         inkscape:tile-x0="994.08558"
         inkscape:tile-h="21.846261"
         inkscape:tile-w="68.324105"
         inkscape:tile-cy="517.31972"
         inkscape:tile-cx="1028.2476"
         height="660"
         width="600"
         id="use3343"
         transform="matrix(0.6427876,0.7660445,-0.7660445,0.6427876,747.39964,-567.96951)"
         xlink:href="#use3297"
         inkscape:tiled-clone-of="#use3297"
         y="0"
         x="0" />
      <use
         height="660"
         width="600"
         id="use3365"
         transform="matrix(0.8191521,-0.5735764,0.5735764,0.8191521,-52.983457,619.67673)"
         xlink:href="#use3343"
         inkscape:tiled-clone-of="#use3343"
         y="0"
         x="0" />
      <use
         height="660"
         width="600"
         id="use3345"
         transform="matrix(-0.7071068,-0.7071068,-0.7071068,0.7071068,2117.2139,815.01441)"
         xlink:href="#use3297"
         inkscape:tiled-clone-of="#use3297"
         y="0"
         x="0" />
      <use
         x="0"
         y="0"
         inkscape:tiled-clone-of="#use3297"
         xlink:href="#use3297"
         transform="matrix(0.9659259,-0.2588191,-0.2588191,-0.9659259,239.55064,1228.303)"
         id="use3359"
         width="600"
         height="660" />
      <use
         height="660"
         width="600"
         id="use3347"
         transform="matrix(0.5,-0.8660255,-0.8660255,-0.5,1007.772,1592.6228)"
         xlink:href="#use3297"
         inkscape:tiled-clone-of="#use3297"
         y="0"
         x="0" />
      <path
         inkscape:tile-y0="408.72582"
         inkscape:tile-x0="1078.9085"
         inkscape:tile-h="16.234548"
         inkscape:tile-w="16.234548"
         inkscape:tile-cy="416.84309"
         inkscape:tile-cx="1087.0258"
         transform="matrix(0.8540896,0,0,0.912323,289.2878,-43.975743)"
         d="M 943.52543,505.10492 A 9.5040073,8.8973684 0 1 1 924.51742,505.10492 A 9.5040073,8.8973684 0 1 1 943.52543,505.10492 z"
         sodipodi:ry="8.8973684"
         sodipodi:rx="9.5040073"
         sodipodi:cy="505.10492"
         sodipodi:cx="934.02142"
         id="path3349"
         style="fill:#fcef3c;fill-opacity:1;stroke:#000000;stroke-width:2;stroke-miterlimit:4;stroke-dasharray:none;stroke-opacity:1"
         sodipodi:type="arc" />
      <use
         height="660"
         width="600"
         id="use3355"
         transform="translate(25.504044,5.642302)"
         xlink:href="#path3349"
         inkscape:tiled-clone-of="#path3349"
         y="0"
         x="0" />
      <use
         height="660"
         width="600"
         id="use3373"
         transform="translate(78.0886,24.584316)"
         xlink:href="#path3299"
         inkscape:tiled-clone-of="#path3299"
         y="0"
         x="0" />
      <use
         height="660"
         width="600"
         id="use3375"
         transform="translate(20.053493,31.338098)"
         xlink:href="#path3299"
         inkscape:tiled-clone-of="#path3299"
         y="0"
         x="0" />
    </g>
    <use
       style="display:inline"
       x="0"
       y="0"
       inkscape:tiled-clone-of="#g3433"
       xlink:href="#g3433"
       id="use3459"
       width="600"
       height="660" />
    <use
       style="display:inline"
       x="0"
       y="0"
       inkscape:tiled-clone-of="#g3433"
       xlink:href="#g3433"
       transform="matrix(-1,0,0,1,600,2.7142475e-8)"
       id="use3461"
       width="600"
       height="660" />
    <path
       style="opacity:1;fill:#fcef3c;fill-opacity:1;stroke:#000000;stroke-width:2;stroke-miterlimit:4;stroke-dasharray:none;stroke-opacity:1;display:inline"
       d="M 287.75976,592.94915 C 298.51661,594.15834 301.80614,606.7153 312.83416,603.46422 C 301.53964,543.27218 307.32907,444.91214 307.77896,422.88809 C 307.98279,412.90975 299.34436,344.70251 302.52246,276.31838 C 301.2127,266.54632 299.66218,268.89019 298.35241,277.05424 C 295.2004,335.57665 300.24608,363.90932 291.39959,422.68588 C 294.61587,477.01375 294.19293,538.62128 287.75976,592.94915 z"
       id="path4624"
       sodipodi:nodetypes="ccscccc" />
  </g>
  <g
     inkscape:groupmode="layer"
     id="layer2"
     inkscape:label="Reflet final"
     sodipodi:insensitive="true"
     style="display:inline">
    <path
       sodipodi:nodetypes="cccccc"
       d="M 300.00001,658.5 C 300.00001,658.5 598.50001,546.17969 598.50001,260.72817 C 598.50001,-24.723334 598.50001,2.1764865 598.50001,2.1764865 L 1.5,2.1764865 L 1.5,260.72817 C 1.5,546.17969 300.00001,658.5 300.00001,658.5 z"
       style="opacity:1;fill:url(#radialGradient3163);fill-opacity:1;fill-rule:evenodd;stroke:none;stroke-width:1px;stroke-linecap:butt;stroke-linejoin:miter;stroke-opacity:1"
       id="path2875"
       inkscape:export-xdpi="144"
       inkscape:export-ydpi="144" />
  </g>
  <g
     inkscape:groupmode="layer"
     id="layer1"
     inkscape:label="Contour final"
     style="display:inline"
     sodipodi:insensitive="true">
    <path
       sodipodi:nodetypes="cccccc"
       d="M 299.99999,658.50028 C 299.99999,658.50028 1.5,546.17992 1.5,260.72828 C 1.5,-24.723336 1.5,2.1764957 1.5,2.1764957 L 598.49999,2.1764957 L 598.49999,260.72828 C 598.49999,546.17992 299.99999,658.50028 299.99999,658.50028 z"
       style="opacity:1;fill:none;fill-opacity:1;fill-rule:evenodd;stroke:#000000;stroke-width:3.00000048;stroke-linecap:butt;stroke-linejoin:miter;stroke-miterlimit:4;stroke-dasharray:none;stroke-opacity:1"
       id="path1411"
       inkscape:export-xdpi="144"
       inkscape:export-ydpi="144" />
  </g>
</svg>
