<?xml version="1.0" encoding="utf-8"?>
<!-- Generator: Adobe Illustrator 23.0.2, SVG Export Plug-In . SVG Version: 6.00 Build 0)  -->
<svg version="1.1" id="Calque_1" xmlns="http://www.w3.org/2000/svg" xmlns:xlink="http://www.w3.org/1999/xlink" x="0px" y="0px"
	 viewBox="0 0 356 110" style="enable-background:new 0 0 356 110;" xml:space="preserve">
<style type="text/css">
	.st0{fill:#FCCE13;}
	.st1{fill:#FCD740;}
</style>
<g>
	<g>
		<path class="st0" d="M113.1,71.4c-0.2,1.1-0.9,3.9-1.2,4.6H99v-1c2.3-0.2,2.5-0.3,2.5-2.5v-9.9c0-2.2-0.3-2.4-2.2-2.5v-1h8.1v1
			c-2,0.2-2.3,0.4-2.3,2.5v10.1c0,1.4,0.1,2.1,1.5,2.1c0.1,0,1.2,0,1.4,0c1.5,0,1.9-0.3,2.5-1c0.5-0.5,1.2-1.6,1.6-2.7L113.1,71.4z"
			/>
		<path class="st0" d="M122.8,75.9v-1c1.6-0.2,1.6-0.5,1.3-1.6c-0.3-0.8-0.7-1.9-1.1-3h-5.1c-0.3,0.8-0.7,1.8-0.9,2.6
			c-0.5,1.6,0.1,1.8,2.1,2v1h-6.4v-1c1.6-0.2,2.1-0.4,2.9-2.6l5.4-13.4l1.2-0.2c1.7,4.5,3.4,9.2,5.1,13.5c1,2.4,1.2,2.6,2.9,2.8v1
			H122.8z M120.5,63.5c-0.8,1.9-1.5,3.6-2.1,5.5h4.1L120.5,63.5z"/>
		<path class="st0" d="M152.5,71.5c-0.4,1.3-1,3.3-1.5,4.2c-0.7,0.2-2.8,0.7-4.8,0.7c-7,0-9.9-4.5-9.9-8.6c0-5.4,4.1-9,10.3-9
			c2.3,0,4.3,0.5,4.9,0.6c0.1,1.2,0.3,3.1,0.5,4.3l-1,0.2c-0.5-2-1.3-3-2.7-3.5c-0.6-0.3-1.6-0.4-2.3-0.4c-3.8,0-5.7,3.1-5.7,7.2
			c0,4.8,2.4,8,6,8c2.2,0,3.6-1.1,5-4L152.5,71.5z"/>
		<path class="st0" d="M162.8,75.9v-1c1.6-0.2,1.6-0.5,1.3-1.6c-0.3-0.8-0.7-1.9-1.1-3h-5.1c-0.3,0.8-0.6,1.8-0.9,2.6
			c-0.5,1.6,0.1,1.8,2.1,2v1h-6.4v-1c1.6-0.2,2.1-0.4,2.9-2.6l5.4-13.4l1.2-0.2c1.7,4.5,3.4,9.2,5.1,13.5c1,2.4,1.2,2.6,2.9,2.8v1
			H162.8z M160.5,63.5c-0.8,1.9-1.5,3.6-2.1,5.5h4.1L160.5,63.5z"/>
		<path class="st0" d="M178.6,59c3.3,0,5.8,0.7,7.4,2.3c1.3,1.2,2.3,3,2.3,5.7c0,3-1.2,5.3-3.3,6.8c-1.9,1.5-4.4,2.2-7.4,2.2h-7.2
			v-1c2-0.2,2.2-0.4,2.2-2.5v-9.9c0-2.2-0.3-2.4-2.2-2.5v-1H178.6z M176.4,72.3c0,1.8,0.5,2.5,2.4,2.5c3.5,0,5.5-2.4,5.5-7.4
			c0-2.5-0.7-4.6-1.9-5.7c-1.1-1.1-2.4-1.5-4.2-1.5c-1,0-1.4,0.2-1.6,0.4c-0.2,0.2-0.3,0.7-0.3,1.4V72.3z"/>
		<path class="st0" d="M190.5,75.9v-1c2-0.2,2.2-0.3,2.2-2.5v-9.9c0-2.2-0.3-2.4-2.2-2.5v-1h8v1c-2,0.2-2.2,0.4-2.2,2.5v9.9
			c0,2.2,0.2,2.3,2.2,2.5v1H190.5z"/>
		<path class="st0" d="M214.9,71.5c-0.1,0.7-0.9,3.7-1.1,4.4h-13.5V75c2.4-0.2,2.5-0.4,2.5-2.5v-9.9c0-2.2-0.3-2.4-2.1-2.5v-1h8.5
			c2.7,0,3.6,0,4-0.1c0,0.5,0.2,2.6,0.3,4.2l-1,0.1c-0.2-0.9-0.7-2-1.1-2.4c-0.5-0.5-0.8-0.7-2.1-0.7h-1.7c-1,0-1.1,0.1-1.1,0.9v5.4
			h2.5c1.5,0,1.7-0.4,2.1-2.2h1v5.8h-1c-0.4-1.9-0.6-2.2-2.1-2.2h-2.5v4.5c0,1.8,0.1,2.3,1.7,2.4h1.8c1.5,0,1.8-0.2,2.4-0.9
			c0.7-0.8,1.2-1.7,1.6-2.6L214.9,71.5z"/>
		<path class="st0" d="M232.8,76.1c-0.2,0-0.5,0-0.8,0c-3.3-0.2-4.3-0.9-5-2c-1-1.4-1.8-3-2.7-4.6c-0.4-0.7-0.8-0.9-1.6-0.9l-0.5,0
			v3.8c0,2.1,0.3,2.3,2.2,2.5v1h-8v-1c2-0.2,2.2-0.4,2.2-2.5v-10c0-2.1-0.3-2.3-2.2-2.5v-1h7.5c2.3,0,3.6,0.3,4.7,1
			c1,0.7,1.7,1.8,1.7,3.5c0,2.3-1.5,3.5-3.3,4.2c0.4,0.8,1.4,2.5,2.2,3.7c0.9,1.4,1.5,2.1,2,2.7c0.6,0.7,0.9,0.9,1.6,1.1L232.8,76.1
			z M222.9,67.6c1.1,0,2-0.2,2.5-0.7c0.9-0.7,1.2-1.7,1.2-3c0-2.8-1.6-3.7-3-3.7c-0.7,0-1,0.1-1.2,0.3c-0.2,0.2-0.2,0.5-0.2,1v6.2
			H222.9z"/>
		<path class="st0" d="M247.7,71.5c-0.1,0.7-0.9,3.7-1.1,4.4h-13.5V75c2.4-0.2,2.5-0.4,2.5-2.5v-9.9c0-2.2-0.3-2.4-2.1-2.5v-1h8.5
			c2.7,0,3.6,0,4-0.1c0,0.5,0.2,2.6,0.3,4.2l-1,0.1c-0.2-0.9-0.7-2-1.1-2.4c-0.5-0.5-0.8-0.7-2.1-0.7h-1.7c-1,0-1.1,0.1-1.1,0.9v5.4
			h2.5c1.5,0,1.7-0.4,2.1-2.2h1v5.8h-1c-0.4-1.9-0.6-2.2-2.1-2.2h-2.5v4.5c0,1.8,0.1,2.3,1.7,2.4h1.8c1.5,0,1.8-0.2,2.4-0.9
			c0.7-0.8,1.2-1.7,1.6-2.6L247.7,71.5z"/>
		<path class="st0" d="M267.3,60c-1.6,0.2-2.1,0.5-2.2,1.7c-0.1,1-0.2,1.9-0.2,4.2v10.3h-1.5l-10.8-13v5.9c0,2.3,0.1,3.3,0.1,4
			c0.1,1.1,0.7,1.7,2.6,1.8v1h-6.4v-1c1.5-0.1,2.1-0.5,2.3-1.7c0.1-0.9,0.2-1.9,0.2-4.1v-6.2c0-0.9-0.1-1.4-0.5-2.1
			c-0.5-0.7-1.1-0.7-2.2-0.8v-1h5.1l9.9,11.5v-4.7c0-2.3,0-3.1-0.1-4.1c-0.1-1.1-0.5-1.7-2.7-1.8v-1h6.4V60z"/>
		<path class="st0" d="M286.8,60c-1.6,0.2-2.1,0.5-2.2,1.7c-0.1,1-0.2,1.9-0.2,4.2v10.3H283l-10.8-13v5.9c0,2.3,0.1,3.3,0.1,4
			c0.1,1.1,0.7,1.7,2.6,1.8v1h-6.4v-1c1.5-0.1,2.1-0.5,2.3-1.7c0.1-0.9,0.2-1.9,0.2-4.1v-6.2c0-0.9-0.1-1.4-0.5-2.1
			c-0.5-0.7-1.1-0.7-2.2-0.8v-1h5.1l9.9,11.5v-4.7c0-2.3,0-3.1-0.1-4.1c-0.1-1.1-0.5-1.7-2.7-1.8v-1h6.4V60z"/>
		<path class="st0" d="M302.5,71.5c-0.1,0.7-0.9,3.7-1.1,4.4h-13.5V75c2.4-0.2,2.5-0.4,2.5-2.5v-9.9c0-2.2-0.3-2.4-2.1-2.5v-1h8.5
			c2.7,0,3.6,0,4-0.1c0,0.5,0.2,2.6,0.3,4.2l-1,0.1c-0.2-0.9-0.7-2-1.1-2.4c-0.5-0.5-0.8-0.7-2.1-0.7h-1.7c-1,0-1.1,0.1-1.1,0.9v5.4
			h2.5c1.5,0,1.7-0.4,2.1-2.2h1v5.8h-1c-0.4-1.9-0.6-2.2-2.1-2.2H294v4.5c0,1.8,0.1,2.3,1.7,2.4h1.8c1.5,0,1.8-0.2,2.4-0.9
			c0.6-0.8,1.2-1.7,1.6-2.6L302.5,71.5z"/>
	</g>
</g>
<g transform="translate(0.000000,110.000000) scale(0.100000,-0.100000)">
</g>
<image style="overflow:visible;" width="116" height="106" xlink:href="../../../../../-- Stage/vignerons.png"  transform="matrix(0.75 0 0 0.75 11.2553 13)">
</image>
<g>
	<g>
		<path class="st1" d="M113.1,43.2c-0.2,1.1-0.9,3.9-1.2,4.6H99v-1c2.3-0.2,2.5-0.3,2.5-2.5v-9.9c0-2.2-0.3-2.4-2.2-2.5v-1h8.1v1
			c-2,0.2-2.3,0.4-2.3,2.5v10.1c0,1.4,0.1,2.1,1.5,2.1c0.1,0,1.2,0,1.4,0c1.5,0,1.9-0.3,2.5-1c0.5-0.5,1.2-1.6,1.6-2.7L113.1,43.2z"
			/>
		<path class="st1" d="M128.8,43.3c-0.1,0.7-0.9,3.7-1.1,4.4h-13.5v-0.9c2.4-0.2,2.5-0.4,2.5-2.5v-9.9c0-2.2-0.3-2.4-2.1-2.5v-1h8.5
			c2.7,0,3.6,0,4-0.1c0,0.5,0.2,2.6,0.3,4.2l-1,0.1c-0.2-0.9-0.7-2-1.1-2.4c-0.5-0.5-0.8-0.7-2.1-0.7h-1.7c-1,0-1.1,0.1-1.1,0.9v5.4
			h2.5c1.5,0,1.7-0.4,2.1-2.2h1V42h-1c-0.4-1.9-0.6-2.2-2.1-2.2h-2.5v4.5c0,1.8,0.1,2.3,1.7,2.4h1.8c1.5,0,1.8-0.2,2.4-0.9
			c0.6-0.8,1.2-1.7,1.6-2.6L128.8,43.3z"/>
		<path class="st1" d="M140.1,35.1c-0.5-1.7-1.2-3.6-3.6-3.6c-1.5,0-2.5,1.1-2.5,2.5c0,1.4,1,2.3,3.3,3.4c2.8,1.4,4.6,2.7,4.6,5.3
			c0,3.1-2.5,5.3-6.3,5.3c-1.7,0-3.1-0.4-4.4-0.8c-0.2-0.6-0.6-3.3-0.8-4.5l1-0.2c0.5,1.6,2,4.5,4.5,4.5c1.6,0,2.5-1,2.5-2.7
			c0-1.5-0.9-2.4-3.1-3.6c-2.7-1.5-4.5-2.8-4.5-5.5c0-2.7,2.1-4.9,6-4.9c1.8,0,3.1,0.4,3.7,0.5c0.1,1,0.3,2.3,0.5,4L140.1,35.1z"/>
		<path class="st1" d="M166,31.8c-1.7,0.2-2.2,0.4-3.2,2.9c-0.8,2-3.5,8.5-5.4,13.3h-1.4c-0.7-2-4.1-10.9-5.2-13.7
			c-0.8-2-1.1-2.4-2.8-2.5v-1h7.9l0,1c-1.9,0.3-1.9,0.4-1.5,1.5c0.8,2.2,2.8,7.5,3.6,9.8c1.6-3.7,3-7.3,3.6-8.9
			c0.7-1.8,0.5-2.2-1.7-2.4v-1h6.2V31.8z"/>
		<path class="st1" d="M165.9,47.7v-1c2-0.2,2.2-0.3,2.2-2.5v-9.9c0-2.2-0.3-2.4-2.2-2.5v-1h8v1c-2,0.2-2.2,0.4-2.2,2.5v9.9
			c0,2.2,0.2,2.3,2.2,2.5v1H165.9z"/>
		<path class="st1" d="M193.5,40.6c-1.5,0.3-1.7,0.4-1.7,2.1v2c0,0.9,0,1.8,0.2,2.5c-1.3,0.2-4.2,0.9-6.3,0.9
			c-6.1,0-9.6-3.7-9.6-8.9c0-5.9,4.8-8.8,10.3-8.8c2.1,0,4.4,0.5,5.3,0.6c0.1,1.1,0.3,3.1,0.4,4.5l-1,0.2c-0.6-2.2-1.6-3.3-3.2-3.9
			c-0.6-0.2-1.6-0.3-2.2-0.3c-3.1,0-5.5,2.7-5.5,7.2c0,4.6,1.6,8.2,5.9,8.2c0.5,0,1.2-0.1,1.7-0.4c0.4-0.2,0.6-0.7,0.6-1.5v-2.3
			c0-1.8-0.4-2-2.5-2.3v-1h7.8V40.6z"/>
		<path class="st1" d="M213.5,31.8c-1.6,0.2-2.1,0.5-2.2,1.7c-0.1,1-0.2,1.9-0.2,4.2V48h-1.5l-10.8-13v5.9c0,2.3,0.1,3.3,0.1,4
			c0.1,1.1,0.7,1.7,2.6,1.8v1h-6.4v-1c1.5-0.1,2.1-0.5,2.3-1.7c0.1-0.9,0.2-1.9,0.2-4.1v-6.2c0-0.9-0.1-1.4-0.5-2.1
			c-0.5-0.6-1.1-0.7-2.2-0.8v-1h5.1l9.9,11.5v-4.7c0-2.3,0-3.1-0.1-4.1c-0.1-1.1-0.5-1.7-2.7-1.8v-1h6.4V31.8z"/>
		<path class="st1" d="M229.1,43.3c-0.1,0.7-0.9,3.7-1.1,4.4h-13.5v-0.9c2.4-0.2,2.5-0.4,2.5-2.5v-9.9c0-2.2-0.3-2.4-2.1-2.5v-1h8.5
			c2.7,0,3.6,0,4-0.1c0,0.5,0.2,2.6,0.3,4.2l-1,0.1c-0.2-0.9-0.7-2-1.1-2.4c-0.5-0.5-0.8-0.7-2.1-0.7h-1.7c-1,0-1.1,0.1-1.1,0.9v5.4
			h2.5c1.5,0,1.7-0.4,2.1-2.2h1V42h-1c-0.4-1.9-0.6-2.2-2.1-2.2h-2.5v4.5c0,1.8,0.1,2.3,1.7,2.4h1.8c1.5,0,1.8-0.2,2.4-0.9
			c0.6-0.8,1.2-1.7,1.6-2.6L229.1,43.3z"/>
		<path class="st1" d="M247,47.9c-0.2,0-0.5,0-0.8,0c-3.3-0.2-4.3-0.9-5-1.9c-1-1.4-1.8-3-2.7-4.6c-0.4-0.7-0.8-0.9-1.6-0.9l-0.5,0
			v3.8c0,2.1,0.3,2.3,2.2,2.5v1h-8v-1c2-0.2,2.2-0.4,2.2-2.5v-10c0-2.1-0.3-2.3-2.2-2.5v-1h7.5c2.3,0,3.6,0.3,4.7,1
			c1,0.7,1.7,1.8,1.7,3.5c0,2.3-1.5,3.5-3.3,4.2c0.4,0.8,1.4,2.5,2.2,3.7c0.9,1.4,1.5,2.1,2,2.7c0.6,0.7,0.9,0.9,1.6,1.1L247,47.9z
			 M237.1,39.4c1.1,0,2-0.2,2.5-0.7c0.9-0.7,1.2-1.7,1.2-3c0-2.8-1.6-3.7-3-3.7c-0.7,0-1,0.1-1.2,0.3c-0.2,0.2-0.2,0.5-0.2,1v6.2
			H237.1z"/>
		<path class="st1" d="M256.7,30.5c4.8,0,8.7,3.5,8.7,8.6c0,5.5-4,9-8.9,9c-5.2,0-9-3.8-9-8.8C247.6,34.9,250.8,30.5,256.7,30.5z
			 M256.4,31.6c-2.7,0-4.6,2.6-4.6,7.2c0,4.4,1.7,8.2,5.3,8.2c2.5,0,4.4-2.4,4.4-7.2C261.4,34.7,259.4,31.6,256.4,31.6z"/>
		<path class="st1" d="M285.7,31.8c-1.6,0.2-2.1,0.5-2.2,1.7c-0.1,1-0.2,1.9-0.2,4.2V48H282l-10.8-13v5.9c0,2.3,0.1,3.3,0.1,4
			c0.1,1.1,0.7,1.7,2.6,1.8v1h-6.4v-1c1.5-0.1,2.1-0.5,2.3-1.7c0.1-0.9,0.2-1.9,0.2-4.1v-6.2c0-0.9-0.1-1.4-0.5-2.1
			c-0.5-0.6-1.1-0.7-2.2-0.8v-1h5.1l9.9,11.5v-4.7c0-2.3,0-3.1-0.1-4.1c-0.1-1.1-0.5-1.7-2.7-1.8v-1h6.4V31.8z"/>
		<path class="st1" d="M296.8,35.1c-0.5-1.7-1.2-3.6-3.6-3.6c-1.5,0-2.5,1.1-2.5,2.5c0,1.4,1,2.3,3.3,3.4c2.8,1.4,4.6,2.7,4.6,5.3
			c0,3.1-2.5,5.3-6.3,5.3c-1.7,0-3.1-0.4-4.4-0.8c-0.2-0.6-0.6-3.3-0.8-4.5l1-0.2c0.5,1.6,2,4.5,4.5,4.5c1.6,0,2.5-1,2.5-2.7
			c0-1.5-0.9-2.4-3.1-3.6c-2.7-1.5-4.5-2.8-4.5-5.5c0-2.7,2.1-4.9,6-4.9c1.8,0,3.1,0.4,3.7,0.5c0.1,1,0.3,2.3,0.5,4L296.8,35.1z"/>
		<path class="st1" d="M314.3,30.8c3.3,0,5.8,0.7,7.4,2.3c1.3,1.2,2.3,3,2.3,5.7c0,3-1.2,5.3-3.3,6.8c-1.9,1.5-4.4,2.2-7.4,2.2h-7.2
			v-1c2-0.2,2.2-0.4,2.2-2.5v-9.9c0-2.2-0.3-2.4-2.2-2.5v-1H314.3z M312.1,44.1c0,1.8,0.5,2.5,2.4,2.5c3.5,0,5.5-2.4,5.5-7.4
			c0-2.5-0.7-4.6-1.9-5.7c-1.1-1.1-2.4-1.5-4.2-1.5c-1,0-1.4,0.2-1.6,0.4c-0.2,0.2-0.3,0.7-0.3,1.4V44.1z"/>
		<path class="st1" d="M340.5,43.3c-0.1,0.7-0.9,3.7-1.1,4.4h-13.5v-0.9c2.4-0.2,2.5-0.4,2.5-2.5v-9.9c0-2.2-0.3-2.4-2.1-2.5v-1h8.5
			c2.7,0,3.6,0,4-0.1c0,0.5,0.2,2.6,0.3,4.2l-1,0.1c-0.2-0.9-0.7-2-1.1-2.4c-0.5-0.5-0.8-0.7-2.1-0.7h-1.7c-1,0-1.1,0.1-1.1,0.9v5.4
			h2.5c1.5,0,1.7-0.4,2.1-2.2h1V42h-1c-0.4-1.9-0.6-2.2-2.1-2.2H332v4.5c0,1.8,0.1,2.3,1.7,2.4h1.8c1.5,0,1.8-0.2,2.4-0.9
			c0.6-0.8,1.2-1.7,1.6-2.6L340.5,43.3z"/>
	</g>
</g>
</svg>
