<?xml version="1.0" encoding="utf-8"?>
<!-- Generator: Adobe Illustrator 23.0.2, SVG Export Plug-In . SVG Version: 6.00 Build 0)  -->
<svg version="1.1"
	 id="svg833" xmlns:cc="http://creativecommons.org/ns#" xmlns:dc="http://purl.org/dc/elements/1.1/" xmlns:rdf="http://www.w3.org/1999/02/22-rdf-syntax-ns#" xmlns:svg="http://www.w3.org/2000/svg"
	 xmlns="http://www.w3.org/2000/svg" xmlns:xlink="http://www.w3.org/1999/xlink" x="0px" y="0px" viewBox="0 0 1650 500"
	 style="enable-background:new 0 0 1650 500;" xml:space="preserve">
<style type="text/css">
	.st0{fill:#FCCD12;}
	.st1{fill-rule:evenodd;clip-rule:evenodd;fill:#FCCD12;}
</style>
<g id="g841" transform="matrix(1.3333333,0,0,-1.3333333,-467.92666,616.85065)">
	<g id="g2817" transform="matrix(1.9444445,0,0,1.9444445,-331.44808,-436.93591)">
		<path id="path961" class="st0" d="M434.5,442.5c0,0-34-11.8-32.5-41.3c1.4-29.6,14.6-39.4,38-46.3c23.4-6.9,43.5-10.4,42-28.3
			c-0.9-10.4-24.3-32.1-67.7-12.6c0,0-9.7-7-15.3-3.5c-5.6,3.5-19.6,32.3-19.6,32.3l9.1,6c0,0-5.4,21.3-3.9,39.1
			c1.7,19.5,0.2,22.9-8.2,32.7c-8.5,9.8-15.9,18.3-15.9,18.3s23.6,10.3,45.1,13C420.2,453.7,434,444.7,434.5,442.5"/>
		<path id="path963" class="st0" d="M473.5,288.2c0,0,34,11.7,32.6,41.3c-1.4,29.6-14.6,39.4-38.1,46.3c-23.4,6.9-43.5,10.4-42,28.3
			c0.9,10.4,24.3,32.1,67.7,12.6c0,0,9.7,7,15.2,3.5c5.6-3.5,19.6-32.3,19.6-32.3l-9.1-6.1c0,0,5.4-21.3,3.9-39.1
			c-1.7-19.5-0.2-22.9,8.3-32.7c8.4-9.8,15.9-18.3,15.9-18.3s-25.6-9.1-40.1-10.6C478.2,278.1,474,286,473.5,288.2"/>
	</g>
	<g id="g2813" transform="matrix(1.9444445,0,0,1.9444445,-331.44808,-436.93591)">
		<g id="g2787" transform="translate(0.90405525)">
			<path id="path965" class="st0" d="M584.6,394.2h18.6v-11.1h-29.5v67h10.9"/>
			<path id="path967" class="st0" d="M650.1,425.5c0,9.8-4.9,14.6-10.9,14.6c-6,0-10.9-4.7-10.9-14.6v-9h21.8V425.5z M628.3,383.1
				h-10.9v42.4c0,16.6,9.9,25.7,21.8,25.7c12.1,0,21.9-9.2,21.9-25.7v-42.4h-11v22.3h-21.8"/>
			<path id="path969" class="st0" d="M723.7,382c-7.1,0-12.4,2.3-18.5,7.1l1.3,10c6.6-3.6,12-5.9,17.6-5.9c4.9,0,11.2,2.7,11.2,8.1
				c0,12.8-31,7.8-31,30.2c0,11.6,10,19.7,21.7,19.7c7.3,0,12.4-2.6,19.2-8.1l-3.4-8.8c-4.6,3.1-10.2,5.9-15.4,5.9
				c-6.6,0-10.6-3.6-10.6-7.7c0-12,31.1-9,31.1-29.5C746.8,389.2,735.5,382,723.7,382"/>
			<path id="path971" class="st0" d="M763.4,450.1h32.7V439h-21.8v-13.5h21.8v-11.2h-21.8v-20.1h21.8v-11.1h-32.7"/>
			<path id="path973" class="st0" d="M807.1,450.1h12.6l14.7-27.6l14.7,27.6h12.6l-22-40.3v-26.8H829v26.8"/>
			<path id="path975" class="st0" d="M906.6,450.1h9.9v-67h-8.3l-25.7,42.8v-42.8h-9.8v67h8.1l25.8-42.8"/>
			<path id="path977" class="st0" d="M938.4,450.1h32.7V439h-21.8v-13.5h21.8v-11.2h-21.8v-20.1h21.8v-11.1h-32.7"/>
		</g>
		<g id="g2795" transform="translate(-0.16073475)">
			<path id="path979" class="st0" d="M593.5,278.6c-7.3,0-12.8,2.4-19.2,7.4l1.3,10.4c6.9-3.7,12.4-6.1,18.3-6.1
				c5.1,0,11.6,2.8,11.6,8.4c0,13.3-32.2,8.1-32.2,31.4c0,12.1,10.4,20.4,22.5,20.4c7.7,0,12.8-2.7,19.9-8.3l-3.6-9.2
				c-4.8,3.2-10.5,6-15.9,6c-6.8,0-11-3.7-11-7.9c0-12.5,32.2-9.3,32.2-30.7C617.5,286,605.7,278.6,593.5,278.6"/>
			<path id="path981" class="st0" d="M645.9,349.3v-44.1c0-10.1,5.1-15,11.3-15c6.2,0,11.4,4.9,11.4,15v44.1H680v-44.1
				c0-17.1-10.2-26.6-22.8-26.6c-12.4,0-22.6,9.5-22.6,26.6v44.1"/>
			<path id="path983" class="st0" d="M735.5,326c0,6.5-5.1,11.7-11.3,11.7c-1.1,0-10.2,0-10.2,0v-23.3h10.2
				C730.3,314.4,735.5,319.6,735.5,326z M752.5,279.7h-13.9l-16.4,23.2c-2.8,0-8.3,0-8.3,0v-23.2h-11.3v69.6h21.5
				c12.4,0,22.6-10.5,22.6-23.3c0-8.8-4.9-16.8-12.3-20.5"/>
			<path id="path985" class="st0" d="M833.5,279.7v41.9l-16.4-31.5h-2.2l-16.4,31.5v-41.9h-10.8v69.6h9.3l19.1-36.6l19.1,36.6h9.3
				v-69.6"/>
			<path id="path987" class="st0" d="M867,349.3h34v-11.6h-22.6v-14H901v-11.6h-22.6v-20.9H901v-11.6h-34"/>
			<path id="path989" class="st0" d="M956.5,326c0,6.5-5.1,11.7-11.3,11.7c-1.1,0-10.2,0-10.2,0v-23.3h10.2
				C951.5,314.4,956.5,319.6,956.5,326z M973.6,279.7h-13.9l-16.3,23.2c-2.8,0-8.4,0-8.4,0v-23.2h-11.3v69.6h21.5
				c12.4,0,22.6-10.5,22.6-23.3c0-8.8-4.9-16.8-12.3-20.5"/>
		</g>
		<rect id="rect2778" x="568.9" y="369.4" class="st1" width="408.8" height="-7.8"/>
	</g>
</g>
</svg>
